Normalized EMG Linear Envelopes
nRows=197
nColumns=4

endheader
time	 med_gas_r	  soleus_r	 tib_ant_r	
3.1873	  0.276688	  0.150720	  0.012354	
3.24979	  0.306677	  0.193136	  0.011739	
3.31229	  0.328685	  0.218807	  0.011056	
3.37478	  0.340259	  0.225605	  0.010466	
3.43728	  0.342328	  0.222486	  0.010252	
3.49978	  0.338047	  0.219087	  0.010492	
3.56227	  0.333196	  0.220261	  0.010946	
3.62477	  0.333368	  0.224689	  0.011337	
3.68726	  0.337560	  0.229076	  0.011642	
3.74976	  0.339591	  0.232784	  0.011960	
3.81226	  0.339041	  0.236561	  0.012221	
3.87475	  0.340783	  0.238684	  0.012248	
3.93725	  0.347081	  0.235345	  0.012030	
3.99974	  0.355744	  0.226900	  0.011731	
4.06224	  0.361626	  0.218677	  0.011450	
4.12474	  0.361991	  0.215117	  0.011158	
4.18723	  0.358024	  0.217138	  0.010873	
4.24973	  0.351616	  0.222490	  0.010689	
4.31222	  0.346043	  0.228673	  0.010616	
4.37472	  0.344598	  0.234608	  0.010606	
4.43722	  0.347233	  0.239427	  0.010670	
4.49971	  0.351661	  0.242966	  0.010845	
4.56221	  0.356580	  0.244563	  0.011101	
4.6247	  0.362659	  0.242258	  0.011343	
4.6872	  0.370894	  0.235643	  0.011415	
4.7497	  0.382621	  0.227750	  0.011208	
4.81219	  0.399265	  0.224752	  0.010809	
4.87469	  0.419353	  0.231446	  0.010485	
4.93718	  0.437538	  0.246020	  0.010490	
4.99968	  0.447116	  0.262874	  0.010936	
5.06218	  0.445838	  0.278736	  0.011747	
5.12467	  0.439141	  0.292267	  0.012680	
5.18717	  0.433872	  0.300011	  0.013397	
5.24966	  0.431339	  0.297133	  0.013602	
5.31216	  0.429291	  0.283764	  0.013396	
5.37466	  0.427897	  0.268065	  0.013529	
5.43715	  0.430900	  0.259052	  0.015104	
5.49965	  0.440992	  0.260156	  0.019221	
5.56214	  0.456057	  0.273839	  0.026948	
5.62464	  0.470599	  0.303566	  0.038375	
5.68714	  0.480111	  0.344128	  0.051029	
5.74963	  0.485280	  0.377265	  0.061220	
5.81213	  0.491694	  0.386230	  0.067572	
5.87462	  0.503566	  0.374552	  0.070951	
5.93712	  0.520224	  0.361555	  0.072321	
5.99962	  0.538654	  0.358654	  0.073469	
6.06211	  0.554272	  0.361397	  0.077128	
6.12461	  0.561452	  0.364383	  0.085076	
6.1871	  0.558249	  0.370762	  0.098534	
6.2496	  0.549077	  0.384830	  0.118275	
6.3121	  0.542301	  0.404456	  0.141394	
6.37459	  0.545588	  0.424475	  0.162597	
6.43709	  0.561314	  0.441601	  0.181399	
6.49958	  0.584990	  0.453101	  0.201518	
6.56208	  0.607835	  0.457297	  0.222526	
6.62458	  0.621976	  0.456915	  0.239506	
6.68707	  0.623664	  0.454916	  0.248902	
6.74957	  0.613042	  0.449863	  0.250274	
6.81206	  0.597032	  0.441201	  0.247505	
6.87456	  0.590611	  0.431828	  0.249132	
6.93706	  0.603522	  0.423892	  0.261100	
6.99955	  0.626081	  0.421024	  0.279818	
7.06205	  0.640040	  0.431501	  0.296409	
7.12454	  0.641453	  0.461604	  0.306308	
7.18704	  0.641697	  0.506309	  0.312461	
7.24954	  0.650200	  0.548172	  0.319478	
7.31203	  0.665239	  0.570253	  0.326335	
7.37453	  0.678597	  0.570039	  0.327900	
7.43702	  0.683453	  0.556010	  0.323122	
7.49952	  0.676486	  0.538796	  0.317119	
7.56202	  0.657313	  0.529176	  0.315674	
7.62451	  0.630647	  0.534475	  0.322035	
7.68701	  0.604806	  0.554502	  0.337510	
7.7495	  0.585812	  0.581958	  0.360199	
7.812	  0.575434	  0.606565	  0.384589	
7.8745	  0.572380	  0.621970	  0.407401	
7.93699	  0.573288	  0.629434	  0.431298	
7.99949	  0.576732	  0.635949	  0.458216	
8.06198	  0.586229	  0.648216	  0.482351	
8.12448	  0.605918	  0.664734	  0.494068	
8.18698	  0.635534	  0.676903	  0.490325	
8.24947	  0.667999	  0.680217	  0.479383	
8.31197	  0.689286	  0.675878	  0.474325	
8.37446	  0.687631	  0.660873	  0.484718	
8.43696	  0.665624	  0.630749	  0.514153	
8.49946	  0.638059	  0.592864	  0.556345	
8.56195	  0.617457	  0.564318	  0.592793	
8.62445	  0.604749	  0.556191	  0.606157	
8.68694	  0.595985	  0.565911	  0.595252	
8.74944	  0.594146	  0.584142	  0.569952	
8.81194	  0.607488	  0.603505	  0.540025	
8.87443	  0.637579	  0.621983	  0.514225	
8.93693	  0.672744	  0.643001	  0.502020	
8.99942	  0.694482	  0.668599	  0.511193	
9.06192	  0.692372	  0.693213	  0.542066	
9.12442	  0.673777	  0.709065	  0.584785	
9.18691	  0.655229	  0.713199	  0.625793	
9.24941	  0.642956	  0.707675	  0.655113	
9.3119	  0.631500	  0.694464	  0.665685	
9.3744	  0.621239	  0.674570	  0.654739	
9.4369	  0.620731	  0.657654	  0.633735	
9.49939	  0.630672	  0.659002	  0.627215	
9.56189	  0.641802	  0.677626	  0.650681	
9.62438	  0.648175	  0.691313	  0.693949	
9.68688	  0.650042	  0.680950	  0.728472	
9.74938	  0.649531	  0.654317	  0.730482	
9.81187	  0.650857	  0.639157	  0.702488	
9.87437	  0.658282	  0.653002	  0.667486	
9.93686	  0.669742	  0.687657	  0.641602	
9.99936	  0.675422	  0.722992	  0.625382	
10.0619	  0.668703	  0.747452	  0.615975	
10.1244	  0.655642	  0.760477	  0.614108	
10.1868	  0.647362	  0.761701	  0.623376	
10.2493	  0.647069	  0.750339	  0.648879	
10.3118	  0.647072	  0.731464	  0.691610	
10.3743	  0.640126	  0.712928	  0.737369	
10.4368	  0.631549	  0.698249	  0.760471	
10.4993	  0.630708	  0.683297	  0.750819	
10.5618	  0.633235	  0.662122	  0.726746	
10.6243	  0.622509	  0.642190	  0.713859	
10.6868	  0.593418	  0.644203	  0.722045	
10.7493	  0.565023	  0.675603	  0.741499	
10.8118	  0.558675	  0.714840	  0.753025	
10.8743	  0.577894	  0.733246	  0.745277	
10.9368	  0.611811	  0.724748	  0.722732	
10.9993	  0.639204	  0.707128	  0.696884	
11.0618	  0.640568	  0.701124	  0.674304	
11.1243	  0.615361	  0.711274	  0.653273	
11.1868	  0.576038	  0.722757	  0.632937	
11.2493	  0.533453	  0.717777	  0.624136	
11.3118	  0.489972	  0.696431	  0.641178	
11.3743	  0.441483	  0.675243	  0.683551	
11.4368	  0.395521	  0.662334	  0.732267	
11.4993	  0.374428	  0.646241	  0.760742	
11.5618	  0.382076	  0.614477	  0.751507	
11.6243	  0.387890	  0.569315	  0.709666	
11.6868	  0.364539	  0.522198	  0.658488	
11.7492	  0.324411	  0.482313	  0.621317	
11.8117	  0.301733	  0.451284	  0.608614	
11.8742	  0.309105	  0.424830	  0.616361	
11.9367	  0.322634	  0.398134	  0.632815	
11.9992	  0.311033	  0.371879	  0.648049	
12.0617	  0.273224	  0.354274	  0.657830	
12.1242	  0.235495	  0.352996	  0.660470	
12.1867	  0.216611	  0.364418	  0.651663	
12.2492	  0.211269	  0.374573	  0.622939	
12.3117	  0.206027	  0.373610	  0.571638	
12.3742	  0.198161	  0.368771	  0.513955	
12.4367	  0.193543	  0.375455	  0.476294	
12.4992	  0.194756	  0.393947	  0.470459	
12.5617	  0.200040	  0.408143	  0.484395	
12.6242	  0.207624	  0.408940	  0.494908	
12.6867	  0.214612	  0.403329	  0.486251	
12.7492	  0.217535	  0.400485	  0.459486	
12.8117	  0.215865	  0.400788	  0.425194	
12.8742	  0.211620	  0.398585	  0.392690	
12.9367	  0.208442	  0.393216	  0.369350	
12.9992	  0.209065	  0.395175	  0.358585	
13.0617	  0.210489	  0.414231	  0.353504	
13.1242	  0.208852	  0.441598	  0.343145	
13.1867	  0.205757	  0.453696	  0.325724	
13.2492	  0.201386	  0.436693	  0.308126	
13.3116	  0.193271	  0.400406	  0.295290	
13.3741	  0.185689	  0.366586	  0.286008	
13.4366	  0.184917	  0.349416	  0.277785	
13.4991	  0.190103	  0.349440	  0.272214	
13.5616	  0.199353	  0.361620	  0.274131	
13.6241	  0.211065	  0.380559	  0.283971	
13.6866	  0.218304	  0.398128	  0.290783	
13.7491	  0.217673	  0.406464	  0.279949	
13.8116	  0.215165	  0.405214	  0.251057	
13.8741	  0.214154	  0.402192	  0.219412	
13.9366	  0.212921	  0.407969	  0.199492	
13.9991	  0.214088	  0.426573	  0.194838	
14.0616	  0.219943	  0.448153	  0.200027	
14.1241	  0.224240	  0.457761	  0.206503	
14.1866	  0.220319	  0.452852	  0.210072	
14.2491	  0.210682	  0.445002	  0.213440	
14.3116	  0.202914	  0.446971	  0.219990	
14.3741	  0.199562	  0.459858	  0.228695	
14.4366	  0.196022	  0.470105	  0.235783	
14.4991	  0.188939	  0.466341	  0.238147	
14.5616	  0.181060	  0.456139	  0.235783	
14.6241	  0.176250	  0.452185	  0.232069	
14.6866	  0.174967	  0.450433	  0.229908	
14.7491	  0.174840	  0.438308	  0.229302	
14.8116	  0.173574	  0.416133	  0.230124	
14.874	  0.170870	  0.393911	  0.232458	
14.9365	  0.167043	  0.374975	  0.234794	
14.999	  0.163521	  0.359054	  0.236077	
15.0615	  0.165411	  0.352871	  0.236663	
15.124	  0.176339	  0.362844	  0.236150	
15.1865	  0.190774	  0.381502	  0.232811	
15.249	  0.198621	  0.394540	  0.226773	
15.3115	  0.194685	  0.403476	  0.223487	
15.374	  0.179134	  0.425741	  0.229255	
15.4365	  0.155706	  0.466559	  0.243075	
